<?xml version="1.0" encoding="utf-8"?>
<!-- Generator: Adobe Illustrator 21.0.0, SVG Export Plug-In . SVG Version: 6.00 Build 0)  -->
<svg version="1.1" id="Layer_1" xmlns="http://www.w3.org/2000/svg" xmlns:xlink="http://www.w3.org/1999/xlink" x="0px" y="0px"
	 width="1350px" height="230.7px" viewBox="0 0 1350 230.7" style="enable-background:new 0 0 1350 230.7;" xml:space="preserve">
<style type="text/css">
	.st0{fill:#FFFFFF;}
	.st1{fill:none;stroke:#FFFFFF;stroke-width:5;stroke-miterlimit:10;}
</style>
<g>
	<g>
		<g>
			<path class="st0" d="M362.2,169.9c-12.5,12.2-29,19-46.4,19h-1c-17.7-0.2-34.2-7.4-46.5-20.1c-12.3-12.7-19-29.5-18.7-47.1
				c0.2-17.5,7.3-34,19.7-46.2c12.5-12.3,28.9-19.1,46.4-19.1h1c17.7,0.3,34.2,7.4,46.5,20.1c1.5,1.5,2.8,3,4.1,4.6h35
				c-15.3-31.8-47.6-53.9-85.2-54.5h-1.5c-52.4,0-95.2,42.1-96,94.6c-0.7,53,41.5,96.7,94.6,97.4c0.5,0,1,0.1,1.5,0.1
				c38.1,0,71.1-22.3,86.6-54.5h-35C365.8,166.2,364,168,362.2,169.9z"/>
		</g>
	</g>
	<path class="st0" d="M182.3,214.3v-91l0,0c0-0.1,0-0.2,0-0.3c0.3-17.7-6.4-34.4-18.7-47.1S134.7,56.1,117,55.8c-0.3,0-0.7,0-1,0
		c-17.5,0-34,6.8-46.4,19C57.1,87.1,50.1,103.5,49.8,121c0,0.8,0,1.6,0,2.3l0,0v91H20v-91l0,0c0-0.9,0-1.8,0-2.8
		c0.8-52.5,43.6-94.6,96-94.6c0.5,0,1,0,1.5,0c53,0.8,95.3,44.4,94.6,97.3v91h-29.8V214.3z"/>
	<path class="st0" d="M566.2,11.4v41c-16.8-16.1-39.6-26.1-64.8-26.5h-1.5c-52.4,0-95.2,42.1-96,94.6c-0.8,53,41.5,96.7,94.6,97.4
		c0.4,0,1,0.1,1.5,0.1c52.3,0,95.2-42.1,95.9-94.6c0.1-1,0.1-1.9,0-2.8h0.1V11.4H566.2z M546.4,169.2c-12.5,12.2-29,19-46.4,19h-1
		c-17.7-0.2-34.2-7.4-46.6-20.1c-12.3-12.7-18.9-29.5-18.7-47.1c0.3-17.5,7.3-33.9,19.8-46.2s28.9-19.1,46.4-19.1h1
		c17.7,0.3,34.2,7.4,46.5,20.1c12.3,12.8,19,29.5,18.7,47.2C566,140.5,558.9,156.9,546.4,169.2z"/>
</g>
<g>
	<g>
		<path class="st0" d="M764.1,51.3v41.1h-6.3l-22.7-27.9v27.9h-7.6V51.2h6.3l22.7,27.9V51.2h7.6V51.3z"/>
		<path class="st0" d="M801.9,82.9h-20.6l-4.1,9.5h-7.9l18.5-41.2h7.5l18.6,41.2h-8L801.9,82.9z M799.4,76.9l-7.8-18l-7.7,18H799.4z
			"/>
		<path class="st0" d="M825.5,57.7h-13.6v-6.5h34.9v6.5h-13.6v34.7h-7.7V57.7z"/>
		<path class="st0" d="M852.6,51.3h7.6v41.1h-7.6V51.3z"/>
		<path class="st0" d="M868.4,71.8c0-12.2,9.4-21.2,22.2-21.2c12.8,0,22.2,8.9,22.2,21.2S903.4,93,890.6,93
			C877.8,93,868.4,84,868.4,71.8z M905,71.8c0-8.4-6.2-14.5-14.5-14.5S876,63.4,876,71.8s6.2,14.5,14.5,14.5S905,80.2,905,71.8z"/>
		<path class="st0" d="M957.4,51.3v41.1h-6.3l-22.7-27.9v27.9h-7.6V51.2h6.3l22.7,27.9V51.2h7.6V51.3z"/>
		<path class="st0" d="M995.1,82.9h-20.6l-4,9.5h-7.9l18.5-41.2h7.5l18.6,41.2h-8L995.1,82.9z M992.6,76.9l-7.8-18l-7.7,18H992.6z"
			/>
		<path class="st0" d="M1012.5,51.3h7.6V86h21.5v6.5h-29.1V51.3z"/>
		<path class="st0" d="M1061,71.8c0-12.3,9.4-21.2,22-21.2c6.7,0,12.5,2.4,16.3,6.9l-4.9,4.6c-3-3.2-6.7-4.8-11-4.8
			c-8.5,0-14.7,6-14.7,14.5s6.2,14.5,14.7,14.5c4.3,0,8-1.6,11-4.9l4.9,4.7c-3.8,4.5-9.6,6.9-16.3,6.9
			C1070.4,93,1061,84.1,1061,71.8z"/>
		<path class="st0" d="M1137.5,86v6.4h-30.9V51.2h30v6.4h-22.4v10.8h19.9v6.3h-19.9V86L1137.5,86L1137.5,86z"/>
		<path class="st0" d="M1182.6,51.3v41.1h-6.3l-22.7-27.9v27.9h-7.6V51.2h6.3l22.7,27.9V51.2h7.6V51.3z"/>
		<path class="st0" d="M1202,57.7h-13.6v-6.5h34.9v6.5h-13.6v34.7h-7.6V57.7H1202z"/>
		<path class="st0" d="M1259.9,86v6.4H1229V51.2h30v6.4h-22.4v10.8h19.9v6.3h-19.9V86L1259.9,86L1259.9,86z"/>
		<path class="st0" d="M1295.3,92.4l-8.4-12.1c-0.5,0.1-1.1,0.1-1.6,0.1h-9.3v12h-7.6V51.2h16.9c10.8,0,17.5,5.5,17.5,14.6
			c0,6.2-3.2,10.8-8.8,13l9.5,13.5h-8.2V92.4z M1285,57.7h-8.9v16.4h8.9c6.7,0,10.2-3.1,10.2-8.2C1295.2,60.7,1291.7,57.7,1285,57.7
			z"/>
		<path class="st0" d="M735.6,144.2v12.5h19.9v6.5h-19.9V179H728v-41.2h30v6.4L735.6,144.2L735.6,144.2z"/>
		<path class="st0" d="M762,158.4c0-12.2,9.4-21.2,22.2-21.2s22.2,8.9,22.2,21.2s-9.4,21.2-22.2,21.2S762,170.5,762,158.4z
			 M798.7,158.4c0-8.4-6.2-14.5-14.5-14.5s-14.5,6.1-14.5,14.5s6.2,14.5,14.5,14.5S798.7,166.8,798.7,158.4z"/>
		<path class="st0" d="M841.4,179l-8.4-12.1c-0.5,0.1-1.1,0.1-1.6,0.1h-9.3v12h-7.6v-41.2h16.9c10.8,0,17.5,5.5,17.5,14.6
			c0,6.2-3.2,10.8-8.8,13l9.5,13.5h-8.2V179z M831.1,144.3h-8.9v16.4h8.9c6.7,0,10.2-3.1,10.2-8.2
			C841.2,147.3,837.8,144.3,831.1,144.3z"/>
		<path class="st0" d="M873.7,137.8h18c13.3,0,22.5,8.2,22.5,20.6s-9.1,20.6-22.5,20.6h-18V137.8L873.7,137.8z M891.3,172.5
			c9.2,0,15.1-5.6,15.1-14.1s-5.9-14.1-15.1-14.1h-10v28.2H891.3z"/>
		<path class="st0" d="M953.1,172.5v6.4h-30.9v-41.2h30v6.4h-22.4v10.7h19.9v6.3h-19.9v11.3h23.3V172.5z"/>
		<path class="st0" d="M998.7,137.8L980.8,179h-7.5l-18-41.2h8.3l13.7,31.7l13.8-31.7H998.7z"/>
		<path class="st0" d="M1033.9,172.5v6.4H1003v-41.2h30v6.4h-22.4v10.7h19.9v6.3h-19.9v11.3h23.3V172.5z"/>
		<path class="st0" d="M1042.4,137.8h7.6v34.7h21.5v6.5h-29.2L1042.4,137.8L1042.4,137.8z"/>
		<path class="st0" d="M1073.9,158.4c0-12.2,9.4-21.2,22.2-21.2c12.8,0,22.2,8.9,22.2,21.2s-9.4,21.2-22.2,21.2
			C1083.3,179.5,1073.9,170.5,1073.9,158.4z M1110.5,158.4c0-8.4-6.2-14.5-14.5-14.5s-14.5,6.1-14.5,14.5s6.2,14.5,14.5,14.5
			C1104.4,172.8,1110.5,166.8,1110.5,158.4z"/>
		<path class="st0" d="M1160.8,152.4c0,9.1-6.7,14.6-17.5,14.6h-9.3v11.9h-7.6v-41.2h16.9C1154.1,137.8,1160.8,143.3,1160.8,152.4z
			 M1153.1,152.4c0-5.2-3.5-8.2-10.2-8.2h-8.9v16.3h8.9C1149.6,160.6,1153.1,157.6,1153.1,152.4z"/>
		<path class="st0" d="M1206.2,179l-0.1-27.3l-13.5,22.6h-3.4l-13.5-22.2V179h-7.3v-41.2h6.3l16.3,27.3l16.1-27.3h6.3l0.1,41.2
			H1206.2z"/>
		<path class="st0" d="M1255.4,172.5v6.4h-30.9v-41.2h30v6.4h-22.4v10.7h19.9v6.3h-19.9v11.3h23.3V172.5z"/>
		<path class="st0" d="M1300.5,137.8V179h-6.3l-22.7-27.9V179h-7.6v-41.2h6.3l22.7,27.9v-27.9H1300.5z"/>
		<path class="st0" d="M1319.9,144.3h-13.6v-6.5h34.9v6.5h-13.6V179h-7.6v-34.7H1319.9z"/>
	</g>
</g>
<line class="st1" x1="667.2" y1="3.4" x2="667.2" y2="226.7"/>
</svg>
